PathFileType	4	(X/Y/Z)	C:/Users/opensim2020/Desktop/walking_exp_matlab/subject01_walking05_straight_01.trc																																																																																																																															
DataRate	CameraRate	NumFrames	NumMarkers	Units	OrigDataRate	OrigDataStartFrame	OrigNumFrames																																																																																																																											
100	100	4	43	mm	100	784	239																																																																																																																											
Frame#	Time	LFHD			RFHD			LBHD			RBHD			C7			T10			CLAV			STRN			RBAK			LSHO			LUPA			LELB			LFRM			LWRA			LWRB			LFIN			RSHO			RUPA			RELB			RFRM			RWRA			RWRB			RFIN			LASI			RASI			LPSI			RPSI			LTHI			LKNE			LTIB			LANK			LHEE			LTOE			RTHI			RKNE			RTIB			RANK			RHEE			RTOE			*39			*40			*41			*42		
		X1	Y1	Z1	X2	Y2	Z2	X3	Y3	Z3	X4	Y4	Z4	X5	Y5	Z5	X6	Y6	Z6	X7	Y7	Z7	X8	Y8	Z8	X9	Y9	Z9	X10	Y10	Z10	X11	Y11	Z11	X12	Y12	Z12	X13	Y13	Z13	X14	Y14	Z14	X15	Y15	Z15	X16	Y16	Z16	X17	Y17	Z17	X18	Y18	Z18	X19	Y19	Z19	X20	Y20	Z20	X21	Y21	Z21	X22	Y22	Z22	X23	Y23	Z23	X24	Y24	Z24	X25	Y25	Z25	X26	Y26	Z26	X27	Y27	Z27	X28	Y28	Z28	X29	Y29	Z29	X30	Y30	Z30	X31	Y31	Z31	X32	Y32	Z32	X33	Y33	Z33	X34	Y34	Z34	X35	Y35	Z35	X36	Y36	Z36	X37	Y37	Z37	X38	Y38	Z38	X39	Y39	Z39	X40	Y40	Z40	X41	Y41	Z41	X42	Y42	Z42	X43	Y43	Z43
																																																																																																																																		
30	0.29	-811.19775	1660.12268	-1109.02661	-799.4928	1674.96912	-996.05182	-911.10571	1584.36902	-1097.65491	-901.34894	1597.54224	-977.65039	-919.33655	1418.03772	-1049.09277	-953.16028	1125.67712	-1027.53918	-774.03149	1351.26489	-1039.50317	-731.15186	1196.13452	-1032.43701	-975.96417	1228.15857	-963.51129	-831.94916	1368.1355	-1203.81042	-873.76563	1180.45605	-1277.76575	-901.44983	1033.62378	-1268.35486	-881.42053	921.52313	-1287.56323	-822.83844	796.24579	-1264.76208	-878.7926	798.42181	-1287.8656	-842.75793	722.01196	-1293.32605	-842.50458	1386.96167	-890.69751	-898.22906	1192.72864	-779.60248	-887.68048	1066.18469	-764.09686	-827.64099	957.9325	-737.82104	-719.00885	870.14929	-765.67133	-759.52032	857.62592	-725.02197	-700.16663	797.15057	-727.72052	-773.7923	919.24603	-1117.13074	-797.79156	915.55353	-901.44891	-964.84436	934.2854	-1090.1637	-979.41431	939.7063	-946.29901	-729.47192	605.54993	-1178.09656	-705.40503	475.50851	-1156.68066	-719.88916	287.10254	-1177.6814	-718.29767	66.65763	-1131.47815	-764.6084	36.117	-1082.54846	-569.45227	34.85624	-1126.18835	-913.49774	591.65332	-852.85956	-941.73682	432.07309	-871.72546	-1070.25012	309.05911	-881.53229	-1184.38831	136.47708	-937.12598	-1235.60083	129.15906	-994.52649	-1085.72412	29.16472	-938.53485	-821.23248	1702.203	-1019.63947	1973.09973	1023.33618	-3101.77319	2012.55066	1021.97723	-3140.56665	NaN	NaN	NaN
31	0.3	-802.98547	1660.79663	-1111.10425	-791.67065	1675.77502	-998.04926	-902.77612	1584.86145	-1099.95313	-893.37659	1598.12292	-979.9577	-910.67725	1418.15112	-1051.19373	-943.77161	1126.04114	-1029.17041	-765.29425	1352.02979	-1041.19519	-721.79395	1197.07678	-1034.16345	-966.7002	1228.36914	-965.47906	-823.11353	1368.5376	-1205.74683	-863.44086	1180.46667	-1279.4845	-889.94977	1033.50793	-1270.1344	-869.08026	921.45953	-1289.19507	-809.91821	796.91577	-1266.35779	-865.78387	798.5871	-1289.77441	-829.45074	722.4295	-1295.36792	-834.49799	1387.63123	-892.49774	-891.23883	1193.38416	-782.41132	-880.98987	1067.05237	-766.57574	-822.04858	958.3938	-739.70789	-714.04248	869.42773	-766.55249	-754.5022	857.32837	-726.29846	-696.24878	796.26062	-728.38098	-764.14349	920.30084	-1119.20056	-787.52252	916.40485	-903.60229	-955.24786	934.76166	-1091.16821	-969.13873	939.70593	-947.14496	-719.67981	605.46112	-1178.16553	-696.96747	474.60349	-1156.95313	-713.96588	285.97684	-1178.46448	-716.77606	66.67369	-1131.17529	-764.29999	36.06175	-1082.46265	-567.98639	34.1935	-1125.42419	-898.81445	591.44598	-852.33496	-925.41028	431.45465	-869.21661	-1058.3186	312.5925	-880.79541	-1175.67725	142.99937	-937.18359	-1225.71545	138.55542	-995.7558	-1084.45728	29.24513	-939.1319	-813.3042	1702.95349	-1021.79535	1973.07886	1023.32043	-3101.77881	2012.58997	1021.95782	-3140.48193	NaN	NaN	NaN
32	0.31	-794.77026	1661.45801	-1113.16553	-783.64966	1676.4884	-1000.15509	-894.4635	1585.33228	-1102.13672	-885.33014	1598.73279	-982.12537	-902.20978	1418.62451	-1053.19177	-934.42664	1126.48059	-1030.90576	-756.60706	1353.09229	-1042.99646	-712.60406	1198.01489	-1035.8457	-957.60699	1228.83887	-967.14014	-814.26636	1369.17505	-1207.61267	-853.0824	1180.74817	-1281.09216	-878.37292	1033.69202	-1271.99817	-856.62885	921.97461	-1291.03333	-796.86951	797.40564	-1267.64478	-852.49658	799.02246	-1291.57837	-815.60529	723.00488	-1296.76135	-825.84064	1388.46045	-894.47125	-884.06433	1194.21411	-785.02362	-874.3291	1068.16345	-768.82306	-816.90686	959.14093	-741.45447	-709.21893	868.72058	-767.54816	-750.18683	857.03119	-727.57513	-692.47571	795.28192	-729.19257	-754.755	921.3266	-1121.43494	-777.61017	917.35773	-905.77124	-945.784	935.24091	-1092.28943	-959.1665	939.79443	-948.1521	-710.71661	605.07074	-1178.54187	-689.42804	473.54019	-1157.50085	-709.20081	285.28436	-1178.54785	-715.86749	66.66136	-1130.86108	-764.05457	36.24519	-1082.40588	-567.17975	33.16106	-1124.95862	-883.36041	591.01965	-851.5318	-908.16077	430.88553	-866.8761	-1044.42932	315.61996	-880.19775	-1165.67798	149.86874	-937.461	-1214.45142	148.23224	-997.19861	-1082.56946	29.47886	-939.97681	-805.46808	1703.53552	-1023.95758	1973.07581	1023.29449	-3101.76807	2012.50049	1021.92163	-3140.67188	NaN	NaN	NaN
33	0.32	-786.63745	1662.11243	-1115.1488	-775.93744	1677.3678	-1002.08557	-886.15601	1585.76404	-1104.24683	-877.33704	1599.32495	-984.19037	-893.2041	1418.9281	-1055.10657	-925.25348	1127.07007	-1032.58472	-747.56335	1353.90283	-1044.94226	-703.53796	1198.9115	-1037.50769	-948.61188	1229.41858	-968.59235	-805.33539	1369.98779	-1209.453	-842.7525	1181.33875	-1282.74622	-866.7688	1034.22192	-1273.89746	-843.93951	922.55444	-1292.76086	-783.51074	798.39899	-1269.04236	-838.93945	799.69617	-1293.20715	-801.50043	724.125	-1298.77869	-816.87677	1389.41394	-896.36798	-876.77362	1195.15173	-787.3418	-867.87311	1069.0835	-771.30286	-810.93909	959.45734	-743.23035	-704.51147	867.97498	-768.48151	-745.901	856.78534	-728.90546	-688.93555	794.26355	-730.03058	-745.55377	922.28705	-1123.76697	-767.92291	918.32159	-908.02509	-936.44	935.70081	-1093.41223	-949.45313	940.10516	-949.13086	-702.58905	604.82947	-1179.38538	-682.60321	472.83826	-1158.36853	-705.25659	284.92105	-1178.54053	-715.46802	66.62679	-1130.5874	-763.80688	36.26245	-1082.28772	-566.75238	32.64521	-1125.06506	-867.57343	590.54718	-850.66553	-890.7287	430.28784	-864.83228	-1029.18237	318.65442	-879.50024	-1154.99915	156.6698	-937.51428	-1201.74158	158.11765	-998.28204	-1080.87183	29.90358	-941.44073	-797.50641	1704.31482	-1026.09546	1973.01758	1023.7348	-3101.8313	2012.58997	1022.01007	-3140.59448	NaN	NaN	NaN
